# xmcd
#
# Track frame offsets:
#	150
#	13675
#	29719
#	41437
#	58387
#	74663
#	94107
#	105751
#	120404
#	138654
#	150465
#	164603
#	181408
#	192264
#	205315
#	221792
#	234341
#	250965
#	265781
#
# Disc length: 3798 seconds
#
# Revision: 0
# Processed by: cddbd v1.5.2PL0 Copyright (c) Steve Scherf et al.
# Submitted via: dBpowerAMP V4.0
#
DISCID=160ed413
DTITLE=Amy Winehouse - The Ska
DYEAR=2009
DGENRE=Blues
TTITLE0=Monkey Man
TTITLE1=Hey little rich girl
TTITLE2=You're wondering now
TTITLE3=Cupid
TTITLE4=Rehab
TTITLE5=You know I'm no good
TTITLE6=Me and Mr Jones
TTITLE7=Just Friends
TTITLE8=Back to black
TTITLE9=Love is a loosing game
TTITLE10=Tears dry on there own
TTITLE11=Wake up alone
TTITLE12=Some unholy war
TTITLE13=He can only hold her
TTITLE14=Rehab live
TTITLE15=Love is a loosing game live
TTITLE16=Take te box live
TTITLE17=Tears dry on their own live
TTITLE18=Valerie live
EXTD=
EXTT0=
EXTT1=
EXTT2=
EXTT3=
EXTT4=
EXTT5=
EXTT6=
EXTT7=
EXTT8=
EXTT9=
EXTT10=
EXTT11=
EXTT12=
EXTT13=
EXTT14=
EXTT15=
EXTT16=
EXTT17=
EXTT18=
PLAYORDER=
